<!-- icon666.com - MILLIONS OF FREE VECTOR ICONS --><svg enable-background="new 0 0 512 512" viewBox="0 0 512 512" xmlns="http://www.w3.org/2000/svg"><g id="_x31_6_Food_Delivery"><g><path d="m480.518 306.724-6.707.044c-.986-42.358-16.039-83.553-42.773-116.526-25.186-31.062-59.656-53.486-98.046-64.107-.736-10.472-4.592-19.619-12.253-29.163-13.127-16.349-34.62-24.459-56.523-19.5-12.659 2.869-24.222 9.966-32.56 19.984-7.507 9.014-12.228 20.221-13.557 31.899-36.044 11.886-68.594 33.729-93.086 62.844-27.673 32.902-44.445 74.34-47.596 117.17l-7.414.048c-16.575.129-29.95 13.711-29.823 30.278.127 16.445 13.594 29.826 30.219 29.826l24-.164c-4.203 21.24 4.799 44.583 22.484 56.956 19.255 13.48 46.597 12.822 64.993-1.777 16.399-13.014 23.5-35.933 18.161-55.855l155.343-1.016c-5.039 21.682 3.938 45.944 22.091 58.648 19.255 13.48 46.597 12.822 64.993-1.777 16.868-13.386 23.895-37.251 17.668-57.554l20.834-.155c16.563-.126 29.954-13.658 29.828-30.224-.128-16.476-13.6-29.879-30.276-29.879zm1.187 10.495-12.38 39.294-13.78.102c-.043-.072-.104-.135-.147-.206-.94-1.539-1.963-3.033-3.076-4.478l10.873-34.693c22.623-.148 16.537-.114 18.51-.019zm-93.685 10.878 3.258-10.386 18.556-.122-2.563 8.143c-6.851-1.119-13.258-.161-19.251 2.365zm-12.988 8.261c-.592.513-1.176 1.032-1.748 1.569-.647.6-1.277 1.22-1.902 1.851-.254.259-.512.513-.761.776-4.741 4.96-8.734 10.715-11.573 16.689l-4.109.027 12.366-39.402 18.508-.121-4.319 13.766c-1.947 1.232-3.805 2.627-5.595 4.119-.292.239-.581.48-.867.726zm-44.066 21.068 12.379-39.401 18.492-.121-12.366 39.401zm-23.923.157 12.378-39.4 18.466-.122-12.378 39.402zm-24.023.156 12.382-39.4 18.563-.122-12.379 39.4zm-23.97.157 12.378-39.399 18.516-.122-12.382 39.4zm-23.921.156 12.378-39.399 18.465-.121-12.378 39.399zm-23.969.158 12.378-39.399 18.512-.121-12.378 39.398zm-15.213.099c-.335-.523-2.071-3.995-6.056-8.629l9.63-30.712 18.56-.122-12.378 39.399zm-46.521-32.086 2.19-6.94 18.471-.122-4.003 12.805c-5.35-2.534-10.845-4.505-16.658-5.743zm-24.93 3.217 3.15-10 18.509-.121-1.918 6.078c-1.054-.105-2.107-.179-3.156-.177-5.597-.021-11.762 1.743-16.585 4.22zm-26.335 28.426c-.163.357-.349.709-.504 1.067l-6.406.044 12.373-39.379 18.562-.122-4.472 14.201c-8.35 6.118-15.276 14.879-19.498 24.074-.018.038-.037.077-.055.115zm87.633-12.515c-4.354-4.157-9.778-8.043-15.016-10.962l4.771-15.263 18.505-.121zm262.531 1.932c-4.319-4.501-9.406-8.404-14.811-11.641l5.709-18.245 18.507-.122zm-19.453-14.232c-5.425-2.784-11.017-4.894-16.367-6.243-.037-.01-.077-.025-.114-.036l2.902-9.219 18.467-.121zm-189.224-228.94c6.886-8.272 16.427-14.132 26.863-16.498 17.811-4.034 35.373 2.491 46.118 15.869 5.451 6.791 8.485 13.05 9.601 19.993-.509-.11-1.011-.243-1.521-.348-27.101-5.593-55.995-5.271-83.574.924-2.682.602-5.348 1.261-8 1.972 1.663-8.028 5.267-15.616 10.513-21.912zm-106.674 94.781c27.464-32.652 65.444-55.487 106.435-64.696 26.162-5.87 53.553-6.175 79.197-.884 40.36 8.328 78.394 31.466 104.358 63.48 24.867 30.674 39.435 70.511 40.445 110.044l-375.564 2.465c3.144-40.368 19.032-79.385 45.129-110.409zm-82.395 140.722c-.086-10.831 8.663-19.713 19.5-19.797l4.118-.027-11.843 37.652c-6.864-3.029-11.716-9.868-11.775-17.828zm19.621 19.507c-.971 0-1.904-.149-2.838-.287l12.291-39.08c.817-.005 19.629-.129 18.513-.121l-12.373 39.381zm105.206 57.27c-14.569 11.573-37.171 12.177-52.562 1.402-16.451-11.512-24.352-35.434-15.277-55.495 5.963-12.811 19.48-26.677 33.681-26.677 4.608.034 10.861 1.873 15.143 3.524 24.936 9.657 31.162 26 31.613 26.52.013.028.03.055.043.084 7.478 16.838 1.928 39.085-12.641 50.642zm260.588 0c-14.569 11.573-37.166 12.177-52.562 1.402-15.397-10.778-22.704-31.821-17.367-50.036 4.484-15.31 21.71-34.212 38.329-31.966 16.663 2.242 37.547 14.843 44.24 29.958 7.479 16.838 1.929 39.085-12.64 50.642zm44.89-59.964-6.097.045 12.06-38.279c7.776 2.578 13.478 9.846 13.547 18.49.084 10.845-8.72 19.661-19.51 19.744z" fill="#000000" style="fill: rgb(255, 255, 255);"></path><path d="m320.622 153.947c-37.867-9.902-79.527-5.21-114.27 12.883-34.729 18.093-62.449 49.531-76.048 86.25-.498 1.348.188 2.844 1.534 3.341 1.329.495 2.841-.175 3.341-1.534 13.157-35.528 39.974-65.943 73.58-83.447 33.596-17.496 73.89-22.049 110.553-12.461 1.376.353 2.803-.472 3.169-1.859.365-1.388-.468-2.81-1.859-3.173z" fill="#000000" style="fill: rgb(255, 255, 255);"></path><path d="m283.786 167.967c-.01 0-.02 0-.03 0-48.429.599-96.223 25.291-124.736 64.445-.843 1.16-.589 2.788.574 3.633 1.169.848 2.791.583 3.631-.571 27.563-37.854 73.773-61.728 120.593-62.307 1.437-.018 2.585-1.196 2.569-2.633-.016-1.424-1.179-2.567-2.601-2.567z" fill="#000000" style="fill: rgb(255, 255, 255);"></path><path d="m157.43 241.007c-1.27-.63-2.844-.107-3.478 1.181l-4.667 9.448c-.635 1.287-.107 2.846 1.178 3.484 1.296.639 2.853.1 3.484-1.178l4.667-9.453c.634-1.288.106-2.847-1.184-3.482z" fill="#000000" style="fill: rgb(255, 255, 255);"></path><path d="m131.334 104.916-90.719 1.742c-2.869.056-5.154 2.427-5.098 5.299.056 2.839 2.371 5.101 5.2 5.101h.102l90.719-1.742c2.869-.056 5.154-2.427 5.098-5.299-.056-2.839-2.371-5.101-5.2-5.101-.031 0-.066 0-.102 0z" fill="#000000" style="fill: rgb(255, 255, 255);"></path><path d="m100.551 152.327c-.117-2.869-2.478-5.108-5.408-4.984l-88.951 3.613c-2.869.117-5.098 2.536-4.982 5.406.112 2.798 2.417 4.989 5.19 4.989.071 0 .142-.003.218-.005l88.951-3.613c2.87-.117 5.099-2.537 4.982-5.406z" fill="#000000" style="fill: rgb(255, 255, 255);"></path><path d="m103.156 196.747c-.046-2.841-2.366-5.114-5.2-5.114-.025 0-.056 0-.086 0l-61.647 1.021c-2.869.048-5.159 2.415-5.114 5.286.046 2.841 2.366 5.114 5.2 5.114h.086l61.647-1.021c2.87-.048 5.16-2.414 5.114-5.286z" fill="#000000" style="fill: rgb(255, 255, 255);"></path><path d="m175.721 381.528c-1.432.107-2.509 1.356-2.402 2.785.823 10.953-7.912 22.247-19.068 24.659-11.009 2.389-23.339-3.296-29.27-13.508-5.667-9.765-5.246-23.115 1.051-33.215.757-1.219.386-2.823-.833-3.583-1.203-.749-2.818-.391-3.585.83-7.282 11.692-7.739 27.195-1.132 38.578 7 12.048 21.618 18.836 34.866 15.98 13.792-2.983 24.181-16.498 23.161-30.128-.112-1.433-1.417-2.492-2.788-2.398z" fill="#000000" style="fill: rgb(255, 255, 255);"></path><path d="m433.46 360.345c-1.295.625-1.833 2.181-1.209 3.473 4.342 8.953 3.773 20.21-1.457 28.681-11.275 18.249-38.245 19.132-50.343.663-.792-1.206-2.417-1.534-3.595-.752-1.203.787-1.539 2.399-.752 3.6 14.073 21.505 45.702 20.93 59.118-.779 6.139-9.945 6.81-23.166 1.711-33.682-.624-1.293-2.178-1.828-3.473-1.204z" fill="#000000" style="fill: rgb(255, 255, 255);"></path></g></g></svg>