<!-- icon666.com - MILLIONS OF FREE VECTOR ICONS --><svg xmlns="http://www.w3.org/2000/svg" id="Icons" viewBox="0 0 60 60"><path d="M58,36a8.005,8.005,0,0,0-6.827-7.9,3.384,3.384,0,0,1,2.143-2.148,1,1,0,0,0-.632-1.9,5.369,5.369,0,0,0-3.554,4,7.894,7.894,0,0,0-4.222,1.778l-.149-.511a6,6,0,1,0-11.518,3.375L34.35,36.46l-.568-.311A1.2,1.2,0,0,0,32,37.2v2.811A9.909,9.909,0,0,0,26,38H23V36a13.027,13.027,0,0,0,7.843-10.082A5,5,0,0,0,35,21V16.9C35,10.292,32.961,4.641,29.1.559A1.756,1.756,0,0,0,27.216.106,18.114,18.114,0,0,1,21,1H12A11.013,11.013,0,0,0,1,12v9c0,.014.008.026.008.04a5.388,5.388,0,0,0,.263,1.635,4.882,4.882,0,0,0,3.883,3.247A13.082,13.082,0,0,0,13,35.977V38H10A10.011,10.011,0,0,0,0,48v8a4,4,0,0,0,4,4H32a3.973,3.973,0,0,0,2.01-.551A3.951,3.951,0,0,0,36,60H56a4,4,0,0,0,4-4V38A2,2,0,0,0,58,36Zm-9-5.908V31a1,1,0,0,0,2,0v-.91A6.006,6.006,0,0,1,56,36H54.79c-.017,0-.03.009-.047.009a1.215,1.215,0,0,0-.522.138L51.33,37.723l-2.712-1.479a1.981,1.981,0,0,0-1.844-.028L45.543,32A5.907,5.907,0,0,1,49,30.092ZM37.879,27.16a4.018,4.018,0,0,1,4.961,2.72l2.134,7.306-.984.536-2.7-1.476a2,2,0,0,0-1.917,0l-2.586,1.409L35.16,32.131A4.023,4.023,0,0,1,37.879,27.16ZM31,23.816V18.184a2.982,2.982,0,0,1,0,5.632ZM12,3h9a20.186,20.186,0,0,0,6.751-.96C31.186,5.736,33,10.871,33,16.9v.126a4.954,4.954,0,0,0-2-.925v-.122A3.107,3.107,0,0,0,28.165,12.9C24.719,12.61,22.378,11.5,20.8,9.4a1,1,0,0,0-1.506-.105C16.412,12.174,9.956,12.724,7.837,12.9A3.113,3.113,0,0,0,5,16.005v.1a5.016,5.016,0,0,0-2,.9V12A9.01,9.01,0,0,1,12,3ZM3.171,22.05a3.1,3.1,0,0,1,.4-2.812A3,3,0,0,1,5.01,18.19l.025,5.649A2.886,2.886,0,0,1,3.171,22.05ZM7.04,24.915,7,15.979A1.1,1.1,0,0,1,8.005,14.9c2.13-.18,8.285-.7,11.884-3.473,1.9,2.032,4.56,3.172,8.108,3.473a1.1,1.1,0,0,1,1,1.083V24a11,11,0,0,1-21.96.915ZM18,37a12.961,12.961,0,0,0,3-.363V39a3,3,0,0,1-6,0V36.63A12.789,12.789,0,0,0,18,37ZM4,58a2,2,0,0,1-2-2V48a8.009,8.009,0,0,1,8-8h3.1a5,5,0,0,0,9.8,0H26a7.912,7.912,0,0,1,6,2.74V56a3.952,3.952,0,0,0,.515,1.924A1.98,1.98,0,0,1,32,58Zm30-2V38.548l1.7.93a1.988,1.988,0,0,0,1.916,0L40.329,38l2.7,1.477a1.988,1.988,0,0,0,1.916,0L47.66,38l2.713,1.479a2,2,0,0,0,1.914,0L54,38.545V56a2,2,0,0,1-2,2H36A2,2,0,0,1,34,56Zm24,0a2,2,0,0,1-2,2h-.556A3.959,3.959,0,0,0,56,56V38h2Z" fill="#000000" style="fill: rgb(255, 255, 255);"></path><path d="M22.9,29.447a.993.993,0,0,0-.438-1.327,1.006,1.006,0,0,0-1.345.42A3.392,3.392,0,0,1,18,30a3.4,3.4,0,0,1-3.111-1.458,1,1,0,0,0-1.784.9A5.316,5.316,0,0,0,18,32,5.316,5.316,0,0,0,22.9,29.447Z" fill="#000000" style="fill: rgb(255, 255, 255);"></path><path d="M38.322,33.9a.991.991,0,0,0,.306-.048l2.131-.683a1,1,0,1,0-.612-1.9l-2.13.683a1,1,0,0,0,.3,1.952Z" fill="#000000" style="fill: rgb(255, 255, 255);"></path><path d="M47.707,46.293a1,1,0,0,0-1.414,1.414l.293.293H39a1,1,0,0,0,0,2h7.586l-.293.293a1,1,0,1,0,1.414,1.414l2-2a1,1,0,0,0,0-1.414Z" fill="#000000" style="fill: rgb(255, 255, 255);"></path></svg>